<svg width="25" height="24" viewBox="0 0 25 24" fill="none" xmlns="http://www.w3.org/2000/svg">
<path d="M2.64945 12C2.64945 11.5858 2.98524 11.25 3.39945 11.25H21.3995C21.8137 11.25 22.1495 11.5858 22.1495 12C22.1495 12.4142 21.8137 12.75 21.3995 12.75H3.39945C2.98524 12.75 2.64945 12.4142 2.64945 12Z" fill="white"/>
<path d="M9.92973 5.46967C10.2226 5.76256 10.2226 6.23744 9.92973 6.53033L4.46007 12L9.92973 17.4697C10.2226 17.7626 10.2226 18.2374 9.92973 18.5303C9.63683 18.8232 9.16196 18.8232 8.86907 18.5303L2.86908 12.5303C2.57619 12.2374 2.57619 11.7626 2.86908 11.4697L8.86907 5.46967C9.16196 5.17678 9.63683 5.17678 9.92973 5.46967Z" fill="white"/>
</svg>
