<svg width="40" height="40" viewBox="0 0 40 40" fill="none" xmlns="http://www.w3.org/2000/svg">
<path d="M11.6161 11.6161C12.1043 11.128 12.8957 11.128 13.3839 11.6161L27.5505 25.7828C28.0387 26.2709 28.0387 27.0624 27.5505 27.5505C27.0624 28.0387 26.2709 28.0387 25.7828 27.5505L11.6161 13.3839C11.128 12.8957 11.128 12.1043 11.6161 11.6161Z" fill="#076A3B"/>
<path d="M11.25 12.5C11.25 11.8096 11.8096 11.25 12.5 11.25H27.5C28.1904 11.25 28.75 11.8096 28.75 12.5C28.75 13.1904 28.1904 13.75 27.5 13.75H13.75V27.5C13.75 28.1904 13.1904 28.75 12.5 28.75C11.8096 28.75 11.25 28.1904 11.25 27.5V12.5Z" fill="#076A3B"/>
</svg>
