<svg width="24" height="24" viewBox="0 0 24 24" fill="none" xmlns="http://www.w3.org/2000/svg">
<path d="M6.96967 6.96967C7.26256 6.67678 7.73744 6.67678 8.03033 6.96967L16.5303 15.4697C16.8232 15.7626 16.8232 16.2374 16.5303 16.5303C16.2374 16.8232 15.7626 16.8232 15.4697 16.5303L6.96967 8.03033C6.67678 7.73744 6.67678 7.26256 6.96967 6.96967Z" fill="#076A3B"/>
<path d="M6.75 7.5C6.75 7.08579 7.08579 6.75 7.5 6.75H16.5C16.9142 6.75 17.25 7.08579 17.25 7.5C17.25 7.91421 16.9142 8.25 16.5 8.25H8.25V16.5C8.25 16.9142 7.91421 17.25 7.5 17.25C7.08579 17.25 6.75 16.9142 6.75 16.5V7.5Z" fill="#076A3B"/>
</svg>
